<svg width="34" height="27" viewBox="0 0 34 27" fill="none" xmlns="http://www.w3.org/2000/svg">
<path d="M33.2901 7.71411C33.0363 7.49284 32.7225 7.35197 32.3885 7.30941C32.0545 7.26684 31.7154 7.3245 31.4142 7.47505L24.3534 10.9907L18.4584 1.19896C18.3069 0.947698 18.093 0.739854 17.8375 0.595578C17.582 0.451302 17.2935 0.375488 17.0001 0.375488C16.7067 0.375488 16.4183 0.451302 16.1628 0.595578C15.9073 0.739854 15.6934 0.947698 15.5418 1.19896L9.64684 10.9949L2.58887 7.47927C2.28841 7.33005 1.95057 7.2729 1.61775 7.31499C1.28493 7.35707 0.971952 7.49652 0.718094 7.71583C0.464236 7.93514 0.280806 8.22454 0.190823 8.54772C0.10084 8.87089 0.108313 9.21345 0.212304 9.5324L5.41543 25.4736C5.46774 25.6338 5.55536 25.7801 5.67181 25.9019C5.78826 26.0237 5.93056 26.1177 6.08823 26.1771C6.24589 26.2365 6.41487 26.2597 6.58271 26.2451C6.75055 26.2304 6.91295 26.1782 7.05793 26.0924C7.09308 26.0713 10.6889 23.9999 17.0001 23.9999C23.3114 23.9999 26.9071 26.0713 26.9395 26.091C27.0845 26.1776 27.2472 26.2305 27.4155 26.2457C27.5837 26.2609 27.7532 26.238 27.9114 26.1786C28.0696 26.1193 28.2124 26.0252 28.3292 25.9031C28.4461 25.7811 28.5339 25.6343 28.5862 25.4736L33.7893 9.53661C33.8963 9.21758 33.906 8.87393 33.8171 8.54939C33.7282 8.22486 33.5447 7.9341 33.2901 7.71411ZM26.8439 23.5541C25.1564 22.8383 21.7926 21.7499 17.0001 21.7499C12.2076 21.7499 8.84387 22.8383 7.15637 23.5541L2.75621 10.078L9.09418 13.2379C9.47781 13.4271 9.91839 13.4657 10.3291 13.3463C10.7398 13.2268 11.0909 12.9578 11.3132 12.5924L17.0001 3.13958L22.687 12.5896C22.9095 12.9544 23.2603 13.2229 23.6707 13.3423C24.081 13.4618 24.5211 13.4235 24.9046 13.2351L31.244 10.078L26.8439 23.5541ZM23.7318 19.0541C23.6859 19.3144 23.5498 19.5501 23.3475 19.7201C23.1451 19.8901 22.8894 19.9834 22.6251 19.9836C22.5591 19.9836 22.4933 19.9779 22.4282 19.9668C18.8348 19.3499 15.1626 19.3499 11.5692 19.9668C11.2753 20.0186 10.9728 19.9516 10.7284 19.7804C10.4839 19.6093 10.3174 19.348 10.2656 19.0541C10.2137 18.7602 10.2808 18.4578 10.4519 18.2133C10.6231 17.9688 10.8843 17.8024 11.1782 17.7505C15.0303 17.0886 18.9671 17.0886 22.8192 17.7505C23.1125 17.802 23.3734 17.9677 23.5448 18.2113C23.7161 18.4549 23.7839 18.7564 23.7332 19.0499L23.7318 19.0541Z" fill="#FDFCF7"/>
</svg>
