<svg width="318" height="317" viewBox="0 0 318 317" fill="none" xmlns="http://www.w3.org/2000/svg">
<mask id="mask0_0_305" style="mask-type:luminance" maskUnits="userSpaceOnUse" x="0" y="21" width="318" height="274">
<path d="M317.77 21.9135H0.969971V294.936H317.77V21.9135Z" fill="white"/>
</mask>
<g mask="url(#mask0_0_305)">
<path d="M193.03 223.571C228.707 223.571 257.628 194.65 257.628 158.975C257.628 123.3 228.707 94.3794 193.03 94.3794C157.354 94.3794 128.433 123.3 128.433 158.975C128.433 194.65 157.354 223.571 193.03 223.571Z" fill="url(#paint0_linear_0_305)"/>
<mask id="mask1_0_305" style="mask-type:alpha" maskUnits="userSpaceOnUse" x="127" y="93" width="132" height="132">
<path d="M193.03 224.23C229.071 224.23 258.287 195.015 258.287 158.975C258.287 122.936 229.071 93.7203 193.03 93.7203C156.99 93.7203 127.773 122.936 127.773 158.975C127.773 195.015 156.99 224.23 193.03 224.23Z" fill="url(#paint1_linear_0_305)"/>
</mask>
<g mask="url(#mask1_0_305)">
<path d="M167.082 84.6462V243.25H45.3636V84.6462H167.082Z" fill="#09143C"/>
</g>
<g style="mix-blend-mode:overlay" opacity="0.75">
<path d="M191.537 126.116C187.488 141.808 175.234 154.062 159.542 158.11C158.647 158.341 158.647 159.612 159.542 159.843C175.234 163.891 187.488 176.145 191.537 191.837C191.768 192.731 193.038 192.731 193.269 191.837C197.318 176.145 209.572 163.891 225.264 159.843C226.159 159.612 226.159 158.341 225.264 158.11C209.572 154.062 197.318 141.808 193.269 126.116C193.269 126.116 191.768 125.222 191.537 126.116Z" fill="white"/>
</g>
<g style="mix-blend-mode:overlay" opacity="0.75">
<path d="M218.343 124.064C217.24 128.339 213.902 131.677 209.627 132.78C209.353 132.851 209.353 133.241 209.627 133.312C213.902 134.415 217.24 137.753 218.343 142.028C218.414 142.302 218.804 142.302 218.875 142.028C219.978 137.753 223.316 134.415 227.591 133.312C227.865 133.241 227.865 132.851 227.591 132.78C223.316 131.677 219.978 128.339 218.875 124.064C218.875 124.064 218.414 123.789 218.343 124.064Z" fill="white"/>
</g>
<path d="M126.488 158.217C126.488 121.816 96.9795 92.306 60.5784 92.3026V224.131C96.9795 224.127 126.488 194.617 126.488 158.217Z" fill="#09143C"/>
<path d="M164.688 245.973V70.8766C164.688 68.4674 162.735 66.5141 160.326 66.5141C157.916 66.5141 155.963 68.4674 155.963 70.8766V245.973C155.963 248.382 157.916 250.336 160.326 250.336C160.326 250.336 164.688 248.382 164.688 245.973Z" fill="#09143C"/>
<path d="M164.691 243.432H173.006V73.4239H164.691V243.432Z" fill="#F06D59"/>
</g>
<defs>
<linearGradient id="paint0_linear_0_305" x1="220.526" y1="111.729" x2="170.246" y2="204.275" gradientUnits="userSpaceOnUse">
<stop stop-color="#FFC442"/>
<stop offset="0.5" stop-color="#FDA42B"/>
<stop offset="1" stop-color="#FB8315"/>
</linearGradient>
<linearGradient id="paint1_linear_0_305" x1="220.807" y1="111.247" x2="170.014" y2="204.737" gradientUnits="userSpaceOnUse">
<stop stop-color="#FFC442"/>
<stop offset="0.5" stop-color="#FDA42B"/>
<stop offset="1" stop-color="#FB8315"/>
</linearGradient>
</defs>
</svg>
