<svg width="36" height="26" viewBox="0 0 36 26" fill="none" xmlns="http://www.w3.org/2000/svg">
<path d="M16.5012 24.6479C16.4403 24.8913 16.2999 25.1074 16.1022 25.2618C15.9045 25.4162 15.6608 25.5001 15.4099 25.5001C15.3151 25.5005 15.2207 25.4892 15.1287 25.4663L10.6287 24.3413C10.5034 24.3099 10.3845 24.2571 10.2771 24.1852L6.90212 21.9352C6.65391 21.7697 6.48166 21.5122 6.42324 21.2196C6.36483 20.927 6.42504 20.6232 6.59063 20.375C6.75623 20.1268 7.01364 19.9546 7.30624 19.8961C7.59884 19.8377 7.90266 19.8979 8.15087 20.0635L11.3627 22.2052L15.6743 23.2838C15.8184 23.3188 15.9541 23.3818 16.0737 23.4694C16.1933 23.5569 16.2944 23.6672 16.3713 23.794C16.4481 23.9208 16.4992 24.0614 16.5215 24.208C16.5437 24.3545 16.5369 24.504 16.5012 24.6479ZM35.1607 11.0832C35.0684 11.3636 34.9215 11.6229 34.7284 11.8462C34.5353 12.0694 34.2999 12.2522 34.0357 12.384L30.7057 14.049L22.9601 21.796C22.8226 21.9334 22.6519 22.0327 22.4646 22.0845C22.2773 22.1363 22.0798 22.1386 21.8913 22.0913L12.8913 19.8413C12.7545 19.807 12.6252 19.7474 12.5102 19.6656L4.70274 14.0912L1.28837 12.384C0.754748 12.1172 0.348911 11.6495 0.160097 11.0836C-0.0287171 10.5177 0.014949 9.89991 0.281494 9.36619L3.77603 2.37853C4.04278 1.84491 4.51054 1.43907 5.07646 1.25026C5.64237 1.06145 6.26011 1.10511 6.79384 1.37166L9.89603 2.91853L17.3491 0.789469C17.5513 0.731635 17.7657 0.731635 17.9679 0.789469L25.421 2.91853L28.5232 1.37166C29.0569 1.10511 29.6747 1.06145 30.2406 1.25026C30.8065 1.43907 31.2743 1.84491 31.541 2.37853L35.0356 9.36619C35.1688 9.62992 35.2485 9.91746 35.27 10.2122C35.2915 10.5069 35.2543 10.8029 35.1607 11.0832ZM28.6667 12.9029L24.8402 5.25009H20.3656L14.2849 11.1563C16.0652 12.294 18.8567 12.6076 21.3612 10.0834C21.5568 9.88622 21.8184 9.76838 22.0957 9.75254C22.3729 9.7367 22.6463 9.82399 22.8631 9.99759L27.702 13.8746L28.6667 12.9029ZM2.29384 10.3717L4.78149 11.6162L8.27602 4.62853L5.78837 3.384L2.29384 10.3717ZM26.0974 15.4679L22.2007 12.3474C19.4529 14.5974 15.964 14.8942 13.0727 13.0506C12.7883 12.8697 12.5482 12.6272 12.3701 12.341C12.192 12.0548 12.0805 11.7323 12.0438 11.3972C12.007 11.0622 12.0461 10.7231 12.158 10.4052C12.2699 10.0872 12.4518 9.79846 12.6902 9.56025C12.6936 9.55615 12.6974 9.55239 12.7015 9.549L19.0099 3.43041L17.6599 3.04509L10.5696 5.0715L6.72071 12.7679L13.6395 17.7109L21.8154 19.7542L26.0974 15.4679ZM33.0218 10.3717L29.5315 3.384L27.0438 4.62853L30.5384 11.6162L33.0218 10.3717Z" fill="#FDFCF7"/>
</svg>
