<svg width="20" height="6" viewBox="0 0 20 6" fill="none" xmlns="http://www.w3.org/2000/svg">
<g clip-path="url(#clip0_0_58)">
<g clip-path="url(#clip1_0_58)">
<g clip-path="url(#clip2_0_58)">
<path d="M2.44882 3.81316C2.96981 3.81316 3.39216 3.36174 3.39216 2.8049C3.39216 2.24804 2.96981 1.79663 2.44882 1.79663C1.92784 1.79663 1.50549 2.24804 1.50549 2.8049C1.50549 3.36174 1.92784 3.81316 2.44882 3.81316Z" fill="white"/>
<path fill-rule="evenodd" clip-rule="evenodd" d="M2.72925 2.97463C2.7823 2.91794 2.80267 2.85377 2.80267 2.80193C2.80267 2.75007 2.7823 2.68591 2.72925 2.62921C2.67482 2.57104 2.57618 2.51385 2.44966 2.51385C2.32315 2.51385 2.22449 2.57104 2.17006 2.62921C2.11702 2.68591 2.09664 2.75007 2.09664 2.80193C2.09664 2.85377 2.11702 2.91794 2.17006 2.97463C2.22449 3.03281 2.32315 3.09 2.44966 3.09C2.57618 3.09 2.67482 3.03281 2.72925 2.97463ZM0.209991 2.80193C0.209991 1.61177 1.13279 0.497314 2.44966 0.497314C3.76654 0.497314 4.68934 1.61177 4.68934 2.80193C4.68934 3.99208 3.76654 5.10653 2.44966 5.10653C1.13279 5.10653 0.209991 3.99208 0.209991 2.80193Z" fill="#FAFAFA"/>
<path d="M9.99371 3.81316C10.5147 3.81316 10.937 3.36174 10.937 2.8049C10.937 2.24804 10.5147 1.79663 9.99371 1.79663C9.47273 1.79663 9.05038 2.24804 9.05038 2.8049C9.05038 3.36174 9.47273 3.81316 9.99371 3.81316Z" fill="white"/>
<path fill-rule="evenodd" clip-rule="evenodd" d="M10.2703 2.97463C10.3233 2.91794 10.3437 2.85377 10.3437 2.80193C10.3437 2.75007 10.3233 2.68591 10.2703 2.62921C10.2158 2.57104 10.1172 2.51385 9.99067 2.51385C9.86416 2.51385 9.76551 2.57104 9.71108 2.62921C9.65803 2.68591 9.63766 2.75007 9.63766 2.80193C9.63766 2.85377 9.65803 2.91794 9.71108 2.97463C9.76551 3.03281 9.86416 3.09 9.99067 3.09C10.1172 3.09 10.2158 3.03281 10.2703 2.97463ZM7.75101 2.80193C7.75101 1.61177 8.6738 0.497314 9.99067 0.497314C11.3076 0.497314 12.2304 1.61177 12.2304 2.80193C12.2304 3.99208 11.3076 5.10653 9.99067 5.10653C8.6738 5.10653 7.75101 3.99208 7.75101 2.80193Z" fill="#FAFAFA"/>
<path d="M17.5424 3.81316C18.0635 3.81316 18.4858 3.36174 18.4858 2.8049C18.4858 2.24804 18.0635 1.79663 17.5424 1.79663C17.0215 1.79663 16.5992 2.24804 16.5992 2.8049C16.5992 3.36174 17.0215 3.81316 17.5424 3.81316Z" fill="white"/>
<path fill-rule="evenodd" clip-rule="evenodd" d="M17.8229 2.97463C17.876 2.91794 17.8963 2.85377 17.8963 2.80193C17.8963 2.75007 17.876 2.68591 17.8229 2.62921C17.7684 2.57104 17.6698 2.51385 17.5433 2.51385C17.4168 2.51385 17.3181 2.57104 17.2637 2.62921C17.2107 2.68591 17.1903 2.75007 17.1903 2.80193C17.1903 2.85377 17.2107 2.91794 17.2637 2.97463C17.3181 3.03281 17.4168 3.09 17.5433 3.09C17.6698 3.09 17.7684 3.03281 17.8229 2.97463ZM15.3036 2.80193C15.3036 1.61177 16.2264 0.497314 17.5433 0.497314C18.8602 0.497314 19.783 1.61177 19.783 2.80193C19.783 3.99208 18.8602 5.10653 17.5433 5.10653C16.2264 5.10653 15.3036 3.99208 15.3036 2.80193Z" fill="#FAFAFA"/>
</g>
</g>
</g>
<defs>
<clipPath id="clip0_0_58">
<rect width="19.79" height="5.94" fill="white" transform="translate(0.209991 0.0100098)"/>
</clipPath>
<clipPath id="clip1_0_58">
<rect width="19.79" height="5.94" fill="white" transform="translate(0.209991 0.0100098)"/>
</clipPath>
<clipPath id="clip2_0_58">
<rect width="19.8" height="5.94" fill="white" transform="translate(0.209991 0.0100098)"/>
</clipPath>
</defs>
</svg>
