<svg width="163" height="36" viewBox="0 0 163 36" fill="none" xmlns="http://www.w3.org/2000/svg">
<g clip-path="url(#clip0_0_44)">
<g clip-path="url(#clip1_0_44)">
<g clip-path="url(#clip2_0_44)">
<path d="M35.4381 17.9648C35.4381 8.41312 27.695 0.669922 18.1432 0.669922C8.59152 0.669922 0.848328 8.41312 0.848328 17.9648C0.848328 27.5165 8.59152 35.2597 18.1432 35.2597C27.695 35.2597 35.4381 27.5165 35.4381 17.9648Z" fill="#171717"/>
<mask id="mask0_0_44" style="mask-type:luminance" maskUnits="userSpaceOnUse" x="9" y="8" width="19" height="19">
<path d="M28 8H9V27H28V8Z" fill="white"/>
</mask>
<g mask="url(#mask0_0_44)">
</g>
<g clip-path="url(#clip3_0_44)">
<path d="M14.3364 8H9.92828V27.4944H14.3364V8Z" fill="#A54C3D"/>
<path d="M18.7445 12.614H14.3364V27.4945H18.7445V12.614Z" fill="#A65446"/>
<path d="M23.1526 17.2324H18.7445V27.4943H23.1526V17.2324Z" fill="#A86358"/>
<path d="M27.5661 21.8464H23.158V27.4944H27.5661V21.8464Z" fill="#AA7870"/>
</g>
<path d="M46.714 22V12.984H53.266V14.72H48.968V16.61H52.748V18.374H48.968V22H46.714ZM57.172 22.14C55.8933 22.14 54.9507 21.846 54.344 21.258C53.7373 20.6607 53.434 19.802 53.434 18.682C53.434 17.5713 53.7373 16.7173 54.344 16.12C54.96 15.5227 55.9027 15.224 57.172 15.224C58.4507 15.224 59.3933 15.5227 60 16.12C60.616 16.7173 60.924 17.5713 60.924 18.682C60.924 19.802 60.6207 20.6607 60.014 21.258C59.4073 21.846 58.46 22.14 57.172 22.14ZM57.172 20.376C57.6947 20.376 58.068 20.2453 58.292 19.984C58.516 19.7227 58.628 19.2887 58.628 18.682C58.628 18.0753 58.516 17.6413 58.292 17.38C58.068 17.1187 57.6947 16.988 57.172 16.988C56.6587 16.988 56.29 17.1187 56.066 17.38C55.842 17.6413 55.73 18.0753 55.73 18.682C55.73 19.2887 55.842 19.7227 56.066 19.984C56.29 20.2453 56.6587 20.376 57.172 20.376ZM62.0675 22V15.364H64.2095L64.2795 15.98C64.5688 15.8027 64.9282 15.644 65.3575 15.504C65.7868 15.3547 66.2162 15.2613 66.6455 15.224V16.918C66.4028 16.946 66.1322 16.9927 65.8335 17.058C65.5442 17.114 65.2642 17.184 64.9935 17.268C64.7322 17.352 64.5082 17.4407 64.3215 17.534V22H62.0675ZM69.8909 22.14C69.3589 22.14 68.8549 22.1027 68.3789 22.028C67.9029 21.9533 67.5249 21.86 67.2449 21.748V20.026C67.5716 20.166 67.9496 20.2733 68.3789 20.348C68.8082 20.4227 69.1909 20.46 69.5269 20.46C69.9282 20.46 70.2176 20.4413 70.3949 20.404C70.5816 20.3667 70.6749 20.264 70.6749 20.096C70.6749 19.9093 70.5256 19.7693 70.2269 19.676C69.9282 19.5827 69.5176 19.4473 68.9949 19.27C68.3882 19.0553 67.9262 18.808 67.6089 18.528C67.3009 18.2387 67.1469 17.814 67.1469 17.254C67.1469 16.6007 67.3896 16.1013 67.8749 15.756C68.3696 15.4013 69.1536 15.224 70.2269 15.224C70.6469 15.224 71.0622 15.2567 71.4729 15.322C71.8836 15.3873 72.2196 15.462 72.4809 15.546V17.24C72.2196 17.1187 71.9209 17.03 71.5849 16.974C71.2489 16.918 70.9456 16.89 70.6749 16.89C70.3296 16.89 70.0356 16.9133 69.7929 16.96C69.5596 16.9973 69.4429 17.0953 69.4429 17.254C69.4429 17.4313 69.5736 17.5573 69.8349 17.632C70.0962 17.6973 70.4742 17.8093 70.9689 17.968C71.4916 18.1267 71.8976 18.2993 72.1869 18.486C72.4762 18.6633 72.6816 18.878 72.8029 19.13C72.9242 19.382 72.9849 19.6993 72.9849 20.082C72.9849 20.7447 72.7236 21.2533 72.2009 21.608C71.6782 21.9627 70.9082 22.14 69.8909 22.14ZM76.2346 22.14C75.7026 22.14 75.1986 22.1027 74.7226 22.028C74.2466 21.9533 73.8686 21.86 73.5886 21.748V20.026C73.9153 20.166 74.2933 20.2733 74.7226 20.348C75.152 20.4227 75.5346 20.46 75.8706 20.46C76.272 20.46 76.5613 20.4413 76.7386 20.404C76.9253 20.3667 77.0186 20.264 77.0186 20.096C77.0186 19.9093 76.8693 19.7693 76.5706 19.676C76.272 19.5827 75.8613 19.4473 75.3386 19.27C74.732 19.0553 74.27 18.808 73.9526 18.528C73.6446 18.2387 73.4906 17.814 73.4906 17.254C73.4906 16.6007 73.7333 16.1013 74.2186 15.756C74.7133 15.4013 75.4973 15.224 76.5706 15.224C76.9906 15.224 77.406 15.2567 77.8166 15.322C78.2273 15.3873 78.5633 15.462 78.8246 15.546V17.24C78.5633 17.1187 78.2646 17.03 77.9286 16.974C77.5926 16.918 77.2893 16.89 77.0186 16.89C76.6733 16.89 76.3793 16.9133 76.1366 16.96C75.9033 16.9973 75.7866 17.0953 75.7866 17.254C75.7866 17.4313 75.9173 17.5573 76.1786 17.632C76.44 17.6973 76.818 17.8093 77.3126 17.968C77.8353 18.1267 78.2413 18.2993 78.5306 18.486C78.82 18.6633 79.0253 18.878 79.1466 19.13C79.268 19.382 79.3286 19.6993 79.3286 20.082C79.3286 20.7447 79.0673 21.2533 78.5446 21.608C78.022 21.9627 77.252 22.14 76.2346 22.14ZM83.0508 22.14C82.4068 22.14 81.8561 22.0373 81.3988 21.832C80.9414 21.6267 80.5914 21.2907 80.3488 20.824C80.1061 20.348 79.9848 19.7133 79.9848 18.92C79.9848 18.1173 80.1248 17.4453 80.4048 16.904C80.6848 16.3533 81.0674 15.938 81.5528 15.658C82.0474 15.3687 82.6121 15.224 83.2468 15.224C83.5921 15.224 83.9001 15.2613 84.1708 15.336C84.4508 15.4107 84.7121 15.5227 84.9548 15.672V12.564H87.2088V22H85.2628L85.1368 21.44C84.8661 21.6733 84.5628 21.8507 84.2268 21.972C83.8908 22.084 83.4988 22.14 83.0508 22.14ZM83.6948 20.502C84.1894 20.502 84.6094 20.334 84.9548 19.998V17.31C84.6374 17.0207 84.2314 16.876 83.7368 16.876C83.2608 16.876 82.8968 17.058 82.6448 17.422C82.4021 17.7767 82.2808 18.2807 82.2808 18.934C82.2808 19.5687 82.3974 19.9887 82.6308 20.194C82.8734 20.3993 83.2281 20.502 83.6948 20.502ZM89.08 14.314V12.62H91.53V14.314H89.08ZM89.262 22V17.03H88.282L88.478 15.364H91.516V22H89.262ZM95.8083 24.464C95.4816 24.464 95.1363 24.45 94.7723 24.422C94.4083 24.394 94.0629 24.352 93.7363 24.296C93.4096 24.24 93.1296 24.1747 92.8963 24.1V22.56C93.2696 22.6813 93.7176 22.7747 94.2403 22.84C94.7629 22.9053 95.2436 22.938 95.6823 22.938C96.2516 22.938 96.6763 22.9053 96.9563 22.84C97.2456 22.784 97.3903 22.6813 97.3903 22.532C97.3903 22.4013 97.3343 22.3127 97.2223 22.266C97.1103 22.2193 96.8909 22.196 96.5643 22.196H94.7303C94.1329 22.196 93.6663 22.0887 93.3303 21.874C93.0036 21.6593 92.8403 21.3467 92.8403 20.936C92.8403 20.656 92.9243 20.39 93.0923 20.138C93.2696 19.886 93.5263 19.6993 93.8623 19.578C93.4796 19.382 93.1903 19.1347 92.9943 18.836C92.7983 18.5373 92.7003 18.1593 92.7003 17.702C92.7003 16.8433 92.9756 16.218 93.5263 15.826C94.0863 15.4247 94.9029 15.224 95.9763 15.224C96.2003 15.224 96.4476 15.2427 96.7183 15.28C96.9983 15.308 97.2036 15.336 97.3343 15.364H99.8823L99.8263 16.764H98.8603C99.0936 16.9973 99.2103 17.3427 99.2103 17.8C99.2103 18.444 99.0003 18.962 98.5803 19.354C98.1696 19.746 97.5443 19.942 96.7043 19.942C96.5643 19.942 96.4243 19.9373 96.2843 19.928C96.1536 19.9093 96.0229 19.8953 95.8923 19.886C95.6496 19.914 95.4396 19.9653 95.2623 20.04C95.0943 20.1147 95.0103 20.222 95.0103 20.362C95.0103 20.474 95.0523 20.5487 95.1363 20.586C95.2296 20.6233 95.3649 20.642 95.5423 20.642H97.2363C97.9176 20.642 98.4449 20.8007 98.8183 21.118C99.2009 21.426 99.3923 21.8787 99.3923 22.476C99.3923 23.8013 98.1976 24.464 95.8083 24.464ZM95.9903 18.696C96.4849 18.696 96.8256 18.612 97.0123 18.444C97.1989 18.276 97.2923 17.996 97.2923 17.604C97.2923 17.212 97.1943 16.9273 96.9983 16.75C96.8116 16.5727 96.4756 16.484 95.9903 16.484C95.5329 16.484 95.2016 16.5727 94.9963 16.75C94.8003 16.918 94.7023 17.2027 94.7023 17.604C94.7023 17.9773 94.7956 18.2527 94.9823 18.43C95.1689 18.6073 95.5049 18.696 95.9903 18.696ZM100.933 14.314V12.62H103.383V14.314H100.933ZM101.115 22V17.03H100.135L100.331 15.364H103.369V22H101.115ZM107.536 22.14C106.714 22.14 106.108 21.93 105.716 21.51C105.333 21.09 105.142 20.5113 105.142 19.774V17.072H104.246V15.364H105.142V13.978L107.396 13.376V15.364H109.006L108.908 17.072H107.396V19.62C107.396 19.9373 107.475 20.1613 107.634 20.292C107.792 20.4133 108.03 20.474 108.348 20.474C108.618 20.474 108.894 20.4273 109.174 20.334V21.86C108.735 22.0467 108.189 22.14 107.536 22.14ZM112.114 22.14C111.694 22.14 111.302 22.0653 110.938 21.916C110.583 21.7667 110.299 21.538 110.084 21.23C109.869 20.9127 109.762 20.5207 109.762 20.054C109.762 19.3727 109.991 18.8407 110.448 18.458C110.915 18.066 111.61 17.87 112.534 17.87H114.382V17.716C114.382 17.38 114.27 17.142 114.046 17.002C113.822 16.8527 113.402 16.778 112.786 16.778C112.03 16.778 111.288 16.8947 110.56 17.128V15.672C110.887 15.5413 111.283 15.434 111.75 15.35C112.226 15.266 112.725 15.224 113.248 15.224C114.275 15.224 115.077 15.434 115.656 15.854C116.244 16.274 116.538 16.9413 116.538 17.856V22H114.564L114.452 21.44C114.209 21.664 113.897 21.8367 113.514 21.958C113.141 22.0793 112.674 22.14 112.114 22.14ZM112.828 20.754C113.183 20.754 113.491 20.6933 113.752 20.572C114.013 20.4507 114.223 20.2967 114.382 20.11V19.172H112.786C112.123 19.172 111.792 19.438 111.792 19.97C111.792 20.2127 111.876 20.404 112.044 20.544C112.212 20.684 112.473 20.754 112.828 20.754ZM119.934 22.14C119.206 22.14 118.683 21.9813 118.366 21.664C118.048 21.3467 117.89 20.838 117.89 20.138V12.564H120.144V19.914C120.144 20.1287 120.186 20.278 120.27 20.362C120.363 20.4367 120.498 20.474 120.676 20.474C120.928 20.474 121.152 20.4413 121.348 20.376V21.902C121.133 21.986 120.918 22.0467 120.704 22.084C120.498 22.1213 120.242 22.14 119.934 22.14Z" fill="#FAFAFA"/>
<path d="M138.046 12.8182V23H136.202V14.6129H136.142L133.761 16.1342V14.4439L136.291 12.8182H138.046ZM142.451 18.5256V23H140.651V12.8182H142.411V16.6612H142.501C142.68 16.2304 142.956 15.8906 143.331 15.642C143.709 15.3902 144.189 15.2642 144.773 15.2642C145.303 15.2642 145.765 15.3752 146.16 15.5973C146.554 15.8194 146.859 16.1442 147.075 16.5717C147.293 16.9993 147.403 17.5213 147.403 18.1378V23H145.603V18.4162C145.603 17.9025 145.47 17.5031 145.205 17.218C144.943 16.9297 144.576 16.7855 144.102 16.7855C143.783 16.7855 143.498 16.8551 143.246 16.9943C142.998 17.1302 142.802 17.3274 142.66 17.5859C142.521 17.8445 142.451 18.1577 142.451 18.5256Z" fill="#FAFAFA"/>
</g>
</g>
</g>
<defs>
<clipPath id="clip0_0_44">
<rect width="161.36" height="34.64" fill="white" transform="translate(0.830017 0.669922)"/>
</clipPath>
<clipPath id="clip1_0_44">
<rect width="161.36" height="34.64" fill="white" transform="translate(0.830017 0.669922)"/>
</clipPath>
<clipPath id="clip2_0_44">
<rect width="161.323" height="34.64" fill="white" transform="translate(0.848328 0.669922)"/>
</clipPath>
<clipPath id="clip3_0_44">
<rect width="17.6378" height="19.4944" fill="white" transform="translate(9.92828 8)"/>
</clipPath>
</defs>
</svg>
