<?xml version="1.0" encoding="UTF-8"?><svg id="Lager_1" xmlns="http://www.w3.org/2000/svg" viewBox="0 0 702.03 100"><rect x="44.43" y="57.8" width="14.8" height="21.63" fill="#fff"/><rect y="4.76" width="14.8" height="74.68" fill="#a54c3d"/><rect x="14.8" y="22.44" width="14.8" height="57" fill="#a65446"/><rect x="29.61" y="40.13" width="14.8" height="39.31" fill="#a86358"/><rect x="44.43" y="57.8" width="14.8" height="21.63" fill="#aa7870"/><path d="m107.34,4.76h11.69v74.68h-11.69V4.76Zm9.31,0h30.95v11.04h-30.95V4.76Zm0,32.36h26.52v11.04h-26.52v-11.04Z" fill="#fff"/><path d="m166.38,76.95c-4.51-2.53-8.05-5.99-10.61-10.39-2.56-4.4-3.84-9.31-3.84-14.72s1.28-10.32,3.84-14.72c2.56-4.4,6.1-7.86,10.61-10.39,4.51-2.52,9.5-3.79,14.99-3.79s10.59,1.26,15.1,3.79c4.51,2.53,8.04,5.99,10.61,10.39,2.56,4.4,3.84,9.31,3.84,14.72s-1.28,10.32-3.84,14.72c-2.56,4.4-6.1,7.87-10.61,10.39-4.51,2.52-9.54,3.79-15.1,3.79s-10.48-1.26-14.99-3.79Zm24.24-9.31c2.78-1.59,4.96-3.77,6.55-6.55,1.59-2.78,2.38-5.86,2.38-9.25s-.8-6.48-2.38-9.25c-1.59-2.78-3.75-4.96-6.49-6.55-2.74-1.59-5.84-2.38-9.31-2.38s-6.46.79-9.2,2.38c-2.74,1.59-4.91,3.77-6.49,6.55-1.59,2.78-2.38,5.86-2.38,9.25s.79,6.48,2.38,9.25c1.59,2.78,3.75,4.96,6.49,6.55,2.74,1.59,5.81,2.38,9.2,2.38s6.48-.79,9.25-2.38Z" fill="#fff"/><path d="m222.39,24.24h11.04v55.2h-11.04V24.24Zm9.9,11.2c1.98-3.86,4.58-6.83,7.79-8.93,3.21-2.09,6.8-3.14,10.77-3.14v11.36c-3.61,0-6.73.72-9.36,2.16-2.63,1.44-4.64,3.48-6.01,6.11-1.37,2.63-2.06,5.68-2.06,9.14l-5.09-3.35c.65-5.05,1.96-9.5,3.95-13.37Z" fill="#fff"/><path d="m266.11,78.41c-2.89-1.55-5.18-3.66-6.87-6.33-1.7-2.67-2.54-5.59-2.54-8.77h11.36c0,2.09.78,3.88,2.33,5.36,1.55,1.48,3.44,2.22,5.68,2.22,2.09,0,3.84-.61,5.25-1.84,1.41-1.23,2.11-2.74,2.11-4.55,0-2.02-.83-3.7-2.49-5.03-1.66-1.33-4.11-2.4-7.36-3.19-4.83-1.3-8.73-3.25-11.69-5.84-2.96-2.6-4.44-6.31-4.44-11.15,0-3.25.83-6.13,2.49-8.66,1.66-2.52,3.88-4.44,6.66-5.74,2.78-1.3,5.86-1.95,9.25-1.95s6.6.74,9.42,2.22c2.81,1.48,5,3.48,6.55,6.01,1.55,2.53,2.33,5.34,2.33,8.44h-11.36c0-1.88-.65-3.48-1.95-4.82-1.3-1.33-2.99-2-5.09-2-1.88,0-3.5.58-4.87,1.73-1.37,1.15-2.06,2.56-2.06,4.22,0,1.95.88,3.59,2.65,4.92,1.77,1.34,4.28,2.44,7.52,3.3,4.98,1.3,8.87,3.28,11.69,5.95,2.81,2.67,4.22,6.24,4.22,10.72,0,3.39-.81,6.38-2.43,8.98-1.62,2.6-3.9,4.6-6.82,6.01-2.92,1.41-6.15,2.11-9.69,2.11s-6.96-.78-9.85-2.33Z" fill="#fff"/><path d="m311.99,78.41c-2.89-1.55-5.18-3.66-6.87-6.33-1.7-2.67-2.54-5.59-2.54-8.77h11.36c0,2.09.78,3.88,2.33,5.36,1.55,1.48,3.44,2.22,5.68,2.22,2.09,0,3.84-.61,5.25-1.84,1.41-1.23,2.11-2.74,2.11-4.55,0-2.02-.83-3.7-2.49-5.03-1.66-1.33-4.11-2.4-7.36-3.19-4.83-1.3-8.73-3.25-11.69-5.84-2.96-2.6-4.44-6.31-4.44-11.15,0-3.25.83-6.13,2.49-8.66,1.66-2.52,3.88-4.44,6.66-5.74,2.78-1.3,5.86-1.95,9.25-1.95s6.6.74,9.42,2.22c2.81,1.48,5,3.48,6.55,6.01,1.55,2.53,2.33,5.34,2.33,8.44h-11.36c0-1.88-.65-3.48-1.95-4.82-1.3-1.33-2.99-2-5.09-2-1.88,0-3.5.58-4.87,1.73-1.37,1.15-2.06,2.56-2.06,4.22,0,1.95.88,3.59,2.65,4.92,1.77,1.34,4.28,2.44,7.52,3.3,4.98,1.3,8.87,3.28,11.69,5.95,2.81,2.67,4.22,6.24,4.22,10.72,0,3.39-.81,6.38-2.43,8.98-1.62,2.6-3.9,4.6-6.82,6.01-2.92,1.41-6.15,2.11-9.69,2.11s-6.96-.78-9.85-2.33Z" fill="#fff"/><path d="m378.98,4.76h11.69v74.68h-11.69V4.76Zm8.66,63.64h20.13c4.91,0,9.32-1.15,13.26-3.46,3.93-2.31,7.05-5.46,9.36-9.47,2.31-4,3.46-8.46,3.46-13.37s-1.15-9.36-3.46-13.37c-2.31-4-5.43-7.16-9.36-9.47-3.93-2.31-8.35-3.46-13.26-3.46h-20.13V4.76h20.35c7.07,0,13.51,1.62,19.32,4.87,5.81,3.25,10.35,7.72,13.64,13.42,3.28,5.7,4.92,12.05,4.92,19.05s-1.64,13.35-4.92,19.05c-3.28,5.7-7.83,10.17-13.64,13.42-5.81,3.25-12.25,4.87-19.32,4.87h-20.35v-11.04Z" fill="#fff"/><path d="m458.2,12.23c-1.37-1.37-2.06-3.07-2.06-5.09s.68-3.71,2.06-5.09,3.07-2.06,5.09-2.06,3.71.69,5.09,2.06c1.37,1.37,2.06,3.07,2.06,5.09s-.69,3.72-2.06,5.09c-1.37,1.37-3.07,2.06-5.09,2.06s-3.72-.68-5.09-2.06Zm-.43,12.01h11.04v55.2h-11.04V24.24Z" fill="#fff"/><path d="m493.97,75.76c-4.15-2.45-7.43-5.84-9.85-10.17-2.42-4.33-3.63-9.13-3.63-14.39s1.21-10.05,3.63-14.34c2.42-4.29,5.7-7.68,9.85-10.17,4.15-2.49,8.78-3.73,13.91-3.73s9.31,1.23,13.2,3.68c3.9,2.45,6.93,5.83,9.09,10.12,2.16,4.29,3.25,9.11,3.25,14.45s-1.08,10.16-3.25,14.45c-2.16,4.29-5.19,7.67-9.09,10.12-3.9,2.45-8.3,3.68-13.2,3.68s-9.76-1.23-13.91-3.68Zm-8.06,14.18h47.08l-4.87,4.87V24.24h10.93v75.76h-53.14v-10.07Zm33.28-22.94c2.78-1.59,4.96-3.77,6.55-6.55,1.59-2.78,2.38-5.86,2.38-9.25s-.8-6.47-2.38-9.25c-1.59-2.78-3.75-4.96-6.49-6.55-2.74-1.59-5.84-2.38-9.31-2.38s-6.46.8-9.2,2.38c-2.74,1.59-4.91,3.77-6.49,6.55-1.59,2.78-2.38,5.86-2.38,9.25s.79,6.48,2.38,9.25c1.59,2.78,3.75,4.96,6.49,6.55,2.74,1.59,5.81,2.38,9.2,2.38s6.47-.79,9.25-2.38Z" fill="#fff"/><path d="m554.41,12.23c-1.37-1.37-2.06-3.07-2.06-5.09s.68-3.71,2.06-5.09,3.07-2.06,5.09-2.06,3.71.69,5.09,2.06c1.37,1.37,2.06,3.07,2.06,5.09s-.69,3.72-2.06,5.09c-1.37,1.37-3.07,2.06-5.09,2.06s-3.72-.68-5.09-2.06Zm-.43,12.01h11.04v55.2h-11.04V24.24Z" fill="#fff"/><path d="m575.63,24.24h36.36v10.07h-36.36v-10.07Zm10.5-16.23h11.04v66.56l-4.98-5.19h19.81v10.07h-25.87V8.01Z" fill="#fff"/><path d="m628.82,78.3c-3.07-1.62-5.48-3.84-7.25-6.66-1.77-2.81-2.65-5.95-2.65-9.42s.88-6.6,2.65-9.42c1.77-2.81,4.18-5.01,7.25-6.6,3.07-1.59,6.47-2.38,10.23-2.38h16.67v9.85h-15.26c-1.88,0-3.61.38-5.19,1.14-1.59.76-2.81,1.79-3.68,3.08-.87,1.3-1.3,2.74-1.3,4.33s.43,3.05,1.3,4.38c.87,1.34,2.09,2.38,3.68,3.14,1.59.76,3.32,1.14,5.19,1.14,2.74,0,5.18-.4,7.31-1.19,2.13-.79,3.77-1.91,4.92-3.35,1.15-1.44,1.73-3.14,1.73-5.09l4.55.97c0,3.54-.85,6.71-2.54,9.52-1.7,2.81-4.08,5.01-7.14,6.6-3.07,1.59-6.48,2.38-10.23,2.38s-7.16-.81-10.23-2.44Zm26.79-8.17l-1.19-1.95v-35.39l2.06,1.95h-33.77v-10.5h42.75v47.19l-1.73-2.06h8.66v10.07h-16.78v-9.31Z" fill="#fff"/><path d="m681.15,1.51h11.04v72.73l-4.98-4.87h14.83v10.07h-20.89V1.51Z" fill="#fff"/></svg>